<svg width="40" height="39" viewBox="0 0 40 39" fill="none" xmlns="http://www.w3.org/2000/svg">
<path d="M19.9993 37.9267C10.6893 37.9267 0.666016 32.0967 0.666016 19.2967C0.666016 6.49667 10.6893 0.666672 19.9993 0.666672C25.1593 0.666672 29.936 2.37334 33.4527 5.47667C37.2994 8.87001 39.3327 13.65 39.3327 19.2967C39.3327 24.9167 37.2994 29.6867 33.4527 33.0933C29.926 36.21 25.1493 37.9267 19.9993 37.9267Z" fill="url(#paint0_linear)"/>
<path d="M20 1.33333C24.9967 1.33333 29.62 2.98333 33.01 5.97667C36.71 9.24 38.6667 13.8467 38.6667 19.2967C38.6667 24.72 36.71 29.32 33.01 32.5933C29.6067 35.6033 24.9867 37.26 20 37.26C14.9867 37.26 10.3667 35.6233 6.98667 32.6533C3.28667 29.4033 1.33333 24.7833 1.33333 19.2967C1.33333 13.7833 3.28667 9.15667 6.98667 5.91333C10.3567 2.96 14.9767 1.33333 20 1.33333ZM20 0C9.61667 0 0 6.66667 0 19.2967C0 31.8567 9.61667 38.5933 20 38.5933C30.3833 38.5933 40 31.6833 40 19.2967C40 6.84 30.3833 0 20 0Z" fill="#EB8F00"/>
<path d="M10.1234 28.5434C12.2567 24.84 16.75 23.3167 20 23.3167C23.2534 23.3167 27.7434 24.84 29.8767 28.5434C30.18 29.0667 31.0334 28.84 30.9367 28.24C30.1167 23.2467 24.59 20.4234 20 20.2567C15.1334 20.08 10.0234 23.5334 9.06335 28.24C8.94669 28.83 9.82335 29.07 10.1234 28.5434Z" fill="#242424"/>
<path d="M26.2565 10.4167C27.6532 10.4167 28.9232 11.5967 28.9232 13.5567C28.9232 15.5167 27.6532 16.6967 26.2565 16.6967C24.8598 16.6967 23.5898 15.5167 23.5898 13.5567C23.5898 11.5967 24.8598 10.4167 26.2565 10.4167Z" fill="#242424"/>
<path d="M13.7428 10.4167C12.3462 10.4167 11.0762 11.5967 11.0762 13.5567C11.0762 15.5167 12.3462 16.6967 13.7428 16.6967C15.1395 16.6967 16.4095 15.5167 16.4095 13.5567C16.4095 11.5967 15.1395 10.4167 13.7428 10.4167Z" fill="#242424"/>
<defs>
<linearGradient id="paint0_linear" x1="19.9994" y1="4.53567" x2="19.9994" y2="33.8633" gradientUnits="userSpaceOnUse">
<stop offset="0.5" stop-color="#FEE133"/>
<stop offset="0.6118" stop-color="#FEDE32"/>
<stop offset="0.7076" stop-color="#FCD32F"/>
<stop offset="0.7975" stop-color="#FAC12B"/>
<stop offset="0.8834" stop-color="#F7A924"/>
<stop offset="0.9" stop-color="#F6A323"/>
</linearGradient>
</defs>
</svg>
