<svg width="15" height="15" viewBox="0 0 15 15" fill="none" xmlns="http://www.w3.org/2000/svg">
<path fill-rule="evenodd" clip-rule="evenodd" d="M9.28273 7.5L14.6308 2.15194C15.1231 1.65965 15.1231 0.861485 14.6308 0.369261C14.1385 -0.123034 13.3404 -0.123034 12.8481 0.369261L7.49997 5.71738L2.15185 0.36919C1.65956 -0.123104 0.861463 -0.123104 0.369168 0.36919C-0.123056 0.861485 -0.123056 1.65965 0.369168 2.15187L5.71729 7.49992L0.369168 12.848C-0.123056 13.3403 -0.123056 14.1385 0.369168 14.6307C0.861463 15.123 1.65956 15.123 2.15185 14.6307L7.49997 9.28261L12.8481 14.6307C13.3403 15.123 14.1385 15.123 14.6308 14.6307C15.1231 14.1384 15.1231 13.3403 14.6308 12.848L9.28273 7.5Z" fill="#A9B7C1"/>
</svg>
