<svg width="50" height="50" viewBox="0 0 50 50" fill="none" xmlns="http://www.w3.org/2000/svg">
<circle cx="25" cy="25" r="25" transform="rotate(-180 25 25)" fill="#BCC7CE"/>
<path d="M32.19 28.9958H35.1052C35.5059 28.9958 35.834 28.6695 35.834 28.2671V15.1487C35.834 14.7465 35.5074 14.42 35.1052 14.42H32.19C31.7878 14.42 31.4612 14.7465 31.4612 15.1487V28.2671C31.4612 28.6695 31.7893 28.9958 32.19 28.9958Z" fill="white"/>
<path d="M15.3308 28.9959C15.4482 29.0158 20.9438 28.9959 20.9438 28.9959L20.1762 31.0901C19.6465 32.5365 19.9894 34.745 21.4591 35.5301C21.9376 35.7858 22.6061 35.9142 23.1452 35.7785C23.4543 35.7007 23.7259 35.4961 23.8879 35.2219C24.0741 34.9065 24.0549 34.5384 24.1212 34.1887C24.2893 33.3018 24.7084 32.4586 25.3574 31.8256C26.4889 30.7221 30.0039 27.5384 30.0039 27.5384V15.8776H17.8573C16.2183 15.8766 15.1441 17.707 15.9525 19.1366C14.9889 19.7538 14.6593 21.0537 15.2237 22.0518C14.2601 22.669 13.9305 23.9689 14.4949 24.967C12.8322 26.0318 13.3881 28.6674 15.3308 28.9959Z" fill="white"/>
</svg>
