<svg width="40" height="39" viewBox="0 0 40 39" fill="none" xmlns="http://www.w3.org/2000/svg">
<path d="M19.9993 37.9267C10.6893 37.9267 0.666016 32.0967 0.666016 19.2967C0.666016 6.49667 10.6893 0.666672 19.9993 0.666672C25.1593 0.666672 29.936 2.37334 33.4527 5.47667C37.2994 8.87 39.3327 13.65 39.3327 19.2967C39.3327 24.9167 37.2994 29.6867 33.4527 33.0933C29.926 36.21 25.1493 37.9267 19.9993 37.9267Z" fill="#BCC7CE"/>
<path d="M20 1.33333C24.9967 1.33333 29.62 2.98333 33.01 5.97667C36.71 9.24 38.6667 13.8467 38.6667 19.2967C38.6667 24.72 36.71 29.32 33.01 32.5933C29.6067 35.6033 24.9867 37.26 20 37.26C14.9867 37.26 10.3667 35.6233 6.98667 32.6533C3.28667 29.4033 1.33333 24.7833 1.33333 19.2967C1.33333 13.7833 3.28667 9.15667 6.98667 5.91333C10.3567 2.96 14.9767 1.33333 20 1.33333ZM20 0C9.61667 0 0 6.66667 0 19.2967C0 31.8567 9.61667 38.5933 20 38.5933C30.3833 38.5933 40 31.6833 40 19.2967C40 6.84 30.3833 0 20 0Z" fill="#BCC7CE"/>
<path d="M20.0095 30.0034C16.0128 30.0034 13.1495 27.9301 12.2895 26.6201C11.9595 26.1134 11.7828 25.4868 12.1162 25.1534C12.8328 24.4368 15.8728 26.4668 20.0095 26.4668C24.1462 26.4668 27.2495 24.5201 27.8828 25.1534C28.2128 25.4834 28.0395 26.1134 27.7095 26.6201C26.8495 27.9268 24.0062 30.0034 20.0095 30.0034Z" fill="white"/>
<path d="M26.2565 11.75C27.6532 11.75 28.9232 12.93 28.9232 14.89C28.9232 16.85 27.6532 18.03 26.2565 18.03C24.8598 18.03 23.5898 16.85 23.5898 14.89C23.5898 12.93 24.8598 11.75 26.2565 11.75Z" fill="white"/>
<path d="M13.7428 11.75C12.3462 11.75 11.0762 12.93 11.0762 14.89C11.0762 16.85 12.3462 18.03 13.7428 18.03C15.1395 18.03 16.4095 16.85 16.4095 14.89C16.4095 12.93 15.1395 11.75 13.7428 11.75Z" fill="white"/>
</svg>
