<svg width="40" height="43" viewBox="0 0 40 43" fill="none" xmlns="http://www.w3.org/2000/svg">
<path d="M27.7504 42.2727C24.6419 42.2475 19.9773 42.125 15.3884 41.6928C12.2295 41.3938 8.96606 40.9219 6.48789 39.5172C5.78911 39.121 5.02549 39.0237 4.34832 38.9409C4.06016 38.9048 3.79001 38.8724 3.55948 38.8184C1.80172 38.4042 0.573442 36.8841 0.566238 35.1228L0.541024 23.3263C0.537422 21.6946 1.70086 20.3294 3.31095 20.0773C3.33976 20.0737 3.36498 20.0665 3.39379 20.0593C3.5919 19.9944 8.3249 18.4528 11.8909 15.6649C13.5694 14.3537 15.0066 12.333 15.7378 10.2619C16.4654 8.19796 16.4618 5.94672 16.4582 4.13852C16.4582 2.97148 16.4546 1.51988 16.7715 1.30737C17.5424 0.799489 18.3924 0.540146 19.2965 0.540146C22.0773 0.540146 24.9156 3.07954 25.0273 5.66576C25.1065 7.45955 24.505 9.57752 23.9251 11.6234C23.2407 14.0476 22.6464 16.1403 23.1831 17.5631C23.2623 17.7756 23.464 17.9125 23.6874 17.9125C23.6946 17.9125 26.3132 17.8224 26.3132 17.8224H26.3384C29.2776 17.8224 31.6693 20.2142 31.6729 23.1498L31.691 38.3537C31.691 39.4019 31.2875 40.3853 30.5455 41.1237C29.8071 41.8621 28.8238 42.2727 27.7756 42.2727H27.7504Z" fill="#BCC7CE"/>
<path d="M19.2958 1.08059C21.7668 1.08059 24.3854 3.40747 24.4863 5.68753C24.5619 7.39487 23.9748 9.46961 23.4057 11.4759C22.6925 13.9901 22.0801 16.1621 22.6781 17.7506C22.8366 18.172 23.24 18.4493 23.6902 18.4493H23.7299L26.3233 18.3593H26.3449C28.9851 18.3593 31.1355 20.5061 31.1391 23.1499L31.1571 38.3539C31.1571 39.2544 30.8077 40.1044 30.1702 40.742C29.5326 41.3795 28.6862 41.7325 27.7821 41.7325H27.7533C24.6556 41.7073 20.0054 41.5849 15.4381 41.1562C12.3404 40.8645 9.14183 40.4034 6.75372 39.0491C5.96128 38.5988 5.10401 38.4944 4.41604 38.4079C4.14228 38.3755 3.88654 38.3431 3.68483 38.2927C2.172 37.9361 1.11302 36.6321 1.10942 35.1229L1.0806 23.3264C1.077 21.9649 2.04953 20.823 3.39307 20.6141C3.4471 20.6069 3.50473 20.5925 3.55516 20.5745C3.75687 20.5097 8.57632 18.9356 12.2179 16.09C13.9721 14.7177 15.4777 12.6069 16.2413 10.4421C17.0014 8.29176 16.9978 5.99009 16.9942 4.13868C16.9942 3.25979 16.9905 2.07114 17.1418 1.71094C17.8046 1.28951 18.5286 1.08059 19.2958 1.08059ZM19.2958 0C18.3413 0 17.376 0.259343 16.4719 0.857271C15.3048 1.6281 16.5691 6.26745 15.2256 10.0783C14.4187 12.3656 12.8807 14.2026 11.5552 15.2364C8.02522 17.9955 3.22738 19.5443 3.22738 19.5443C1.36516 19.8361 -0.00359489 21.4426 7.0925e-06 23.33L0.0288233 35.1265C0.0360272 37.158 1.45881 38.8762 3.4363 39.3444C4.23594 39.5317 5.32734 39.4813 6.22063 39.9892C8.60874 41.3435 11.6704 41.8838 15.3372 42.2296C19.8757 42.6583 24.4863 42.7843 27.7461 42.8131H27.7821C30.2422 42.8131 32.2413 40.8176 32.2377 38.3539L32.2197 23.1499C32.2161 19.9045 29.5831 17.2823 26.3449 17.2823H26.3017L23.6938 17.3724C22.7933 14.9806 25.7434 9.59928 25.5705 5.6407C25.4444 2.82755 22.4439 0 19.2958 0Z" fill="#BCC7CE"/>
<path d="M20.7617 20.9599C21.4389 22.7609 21.4461 25.5704 20.7617 27.3066C19.7711 29.8136 17.347 32.0072 14.5483 32.3926C13.8639 32.4862 14.2709 33.1166 14.9517 33.0229C17.981 32.6051 22.08 31.3768 23.1462 28.6573C26.071 21.1832 22.6491 17.2679 21.1219 18.4349C20.3871 19.004 20.3799 19.9405 20.7617 20.9599Z" fill="#BCC7CE"/>
<path d="M28.0237 23.6326C25.0124 23.6326 21.3924 23.0743 21.2375 20.4052C21.1943 19.6416 21.4248 19.0004 21.9435 18.4493C23.3087 17.0013 26.6621 16.2053 31.3879 16.2053C33.1025 16.2053 34.3523 16.317 34.3668 16.317C34.3812 16.317 34.3992 16.3206 34.4136 16.3206H34.446C34.4964 16.317 34.5432 16.317 34.5937 16.317C36.1245 16.317 37.4032 17.6965 37.5077 19.4579C37.6157 21.2805 36.4163 22.8365 34.835 22.9266C34.8098 22.9266 34.781 22.9302 34.7558 22.9374C34.7233 22.941 31.3879 23.6326 28.0237 23.6326Z" fill="#BCC7CE"/>
<path d="M31.3919 16.7455C33.0776 16.7455 34.3095 16.8536 34.3203 16.8536C34.3527 16.8572 34.3852 16.8572 34.4176 16.8572C34.4392 16.8572 34.4608 16.8572 34.4788 16.8536C34.5184 16.85 34.5581 16.85 34.5941 16.85C35.8368 16.85 36.8813 18.0062 36.9678 19.4794C37.011 20.243 36.7949 20.967 36.359 21.5218C35.952 22.0404 35.3973 22.343 34.803 22.379C34.749 22.3826 34.6949 22.3898 34.6445 22.4006C34.6121 22.4078 31.3235 23.0886 28.0241 23.0886C26.1078 23.0886 24.5878 22.8653 23.5108 22.4258C22.0304 21.8207 21.8107 20.9634 21.7782 20.3727C21.7422 19.7568 21.9223 19.2633 22.3401 18.8167C23.5828 17.5019 26.8822 16.7455 31.3919 16.7455ZM31.3919 15.6649C27.2785 15.6649 20.4563 16.2881 20.6976 20.4376C20.8741 23.4344 24.4905 24.1728 28.0241 24.1728C31.4856 24.1728 34.8678 23.4632 34.8678 23.4632C36.7481 23.3516 38.1744 21.5434 38.0484 19.4218C37.9295 17.3687 36.4023 15.773 34.5977 15.773C34.5364 15.773 34.4788 15.773 34.4176 15.7766C34.4176 15.7766 33.1533 15.6649 31.3919 15.6649Z" fill="#BCC7CE"/>
<path d="M30.2823 30.4872C26.3525 30.4872 21.6699 29.828 21.6699 26.6799C21.6699 23.5318 26.3525 22.8726 30.2823 22.8726C33.6141 22.8726 36.6506 23.3589 36.6794 23.3625C36.7082 23.3661 36.737 23.3697 36.7658 23.3697C38.3543 23.3697 39.4601 25.0482 39.4601 26.5538C39.4601 28.1423 38.2823 29.9865 36.7658 29.9865C36.737 29.9865 36.7082 29.9901 36.6794 29.9937C36.647 30.0009 33.6105 30.4872 30.2823 30.4872Z" fill="#BCC7CE"/>
<path d="M30.2815 23.4165C33.5665 23.4165 36.5634 23.8956 36.5922 23.8992C36.6498 23.91 36.7075 23.9136 36.7651 23.9136C37.997 23.9136 38.9191 25.3112 38.9191 26.5575C38.9191 27.8578 37.9249 29.4498 36.7651 29.4498C36.7075 29.4498 36.6498 29.4535 36.5922 29.4643C36.5634 29.4679 33.5629 29.9469 30.2815 29.9469C27.8214 29.9469 25.8655 29.6876 24.4643 29.1725C22.4436 28.4305 22.2095 27.3931 22.2095 26.6799C22.2095 25.9631 22.4436 24.9294 24.4643 24.1874C25.8619 23.6759 27.8214 23.4165 30.2815 23.4165ZM30.2815 22.3359C25.9844 22.3359 21.1289 23.1248 21.1289 26.6835C21.1289 30.2423 25.9808 31.0311 30.2815 31.0311C33.6998 31.0311 36.7651 30.534 36.7651 30.534C38.6237 30.534 39.9997 28.4053 39.9997 26.5611C39.9997 24.7168 38.6237 22.8366 36.7651 22.8366C36.7651 22.833 33.6962 22.3359 30.2815 22.3359Z" fill="#BCC7CE"/>
<path d="M33.2744 42.4602C31.7579 42.4602 24.0749 42.3413 21.748 40.0108C21.341 39.6038 21.1465 39.1644 21.1465 38.6673C21.1537 36.7763 24.3919 35.6921 30.029 35.6921C32.0389 35.6921 33.5949 35.8361 33.6129 35.8361C33.6273 35.8361 33.6454 35.8397 33.6598 35.8397C34.5026 35.8433 35.2987 36.1855 35.893 36.8087C36.4945 37.4354 36.8223 38.2711 36.8223 39.1572C36.8151 40.9762 35.3923 42.453 33.649 42.453C33.6237 42.4602 33.4977 42.4602 33.2744 42.4602Z" fill="#BCC7CE"/>
<path d="M30.0341 36.236C32.0116 36.236 33.5497 36.3764 33.5641 36.3801C33.5965 36.3837 33.6289 36.3837 33.6613 36.3837C34.3565 36.3873 35.0121 36.6718 35.5055 37.1869C36.0098 37.7128 36.2872 38.4152 36.2836 39.1608C36.28 40.6808 35.0985 41.9199 33.6397 41.9199H33.6361H33.6145C33.6073 41.9199 33.4848 41.9235 33.2723 41.9235C26.7347 41.9235 23.1832 40.688 22.1278 39.6326C21.728 39.2328 21.6847 38.8942 21.6847 38.6745C21.6955 37.1689 24.8905 36.236 30.0341 36.236ZM30.0341 35.1554C26.1728 35.1554 20.6185 35.6741 20.6113 38.6673C20.5969 42.7952 31.1651 43.0005 33.2759 43.0005C33.51 43.0005 33.6397 42.9969 33.6397 42.9969H33.6505C35.6964 42.9969 37.357 41.2823 37.3642 39.1608C37.3714 37.0356 35.7144 35.3067 33.6649 35.2995C33.6649 35.3031 32.0909 35.1554 30.0341 35.1554Z" fill="#BCC7CE"/>
<path d="M31.9284 36.7438C28.6902 36.7438 21.1621 36.3764 21.1621 32.9725C21.1621 30.1125 26.5903 29.6875 29.8285 29.6875C32.692 29.6875 35.1594 30.0045 35.1846 30.0081C35.2062 30.0117 35.2314 30.0117 35.2531 30.0117C36.7551 30.0117 38.5056 30.7537 38.5056 32.8464C38.5056 34.8275 36.9568 36.6285 35.2531 36.6285H35.2098C35.1954 36.6321 33.8087 36.7438 31.9284 36.7438Z" fill="#BCC7CE"/>
<path d="M29.8278 29.1508V30.2314C32.6481 30.2314 35.0902 30.5448 35.1119 30.5484C35.1587 30.5556 35.2055 30.5556 35.2523 30.5556C36.5635 30.5556 37.9646 31.1571 37.9646 32.8501C37.9646 34.5178 36.6463 36.0918 35.2523 36.0918C35.2235 36.0918 35.1947 36.0918 35.1623 36.0954C35.1479 36.0954 33.7827 36.2071 31.9241 36.2071C29.961 36.2071 27.1551 36.081 24.9327 35.4903C22.7895 34.9176 21.7017 34.0711 21.7017 32.9797C21.7017 32.6447 21.7017 31.6254 23.9853 30.9086C25.4081 30.4619 27.3712 30.235 29.8242 30.235L29.8278 29.1508ZM29.8278 29.1508C25.6639 29.1508 20.6211 29.8064 20.6211 32.9761C20.6211 36.7114 27.6089 37.2877 31.9277 37.2877C33.8584 37.2877 35.2523 37.1724 35.2523 37.1724C37.2839 37.1724 39.0452 35.0725 39.0452 32.8501C39.0452 30.6276 37.2839 29.475 35.2523 29.475C35.2523 29.475 32.7562 29.1508 29.8278 29.1508Z" fill="#BCC7CE"/>
<path d="M6.95551 39.8342L5.23016 33.0265L4.50977 39.1498L6.95551 39.8342Z" fill="#BCC7CE"/>
</svg>
