<svg width="50" height="50" viewBox="0 0 50 50" fill="none" xmlns="http://www.w3.org/2000/svg">
<circle cx="25" cy="25" r="25" fill="#BCC7CE"/>
<path d="M17.81 21.0042H14.8948C14.4941 21.0042 14.166 21.3305 14.166 21.7329V34.8513C14.166 35.2535 14.4926 35.58 14.8948 35.58H17.81C18.2122 35.58 18.5388 35.2535 18.5388 34.8513V21.7329C18.5388 21.3305 18.2107 21.0042 17.81 21.0042Z" fill="white"/>
<path d="M34.6692 21.0041C34.5518 20.9842 29.0562 21.0041 29.0562 21.0041L29.8238 18.9099C30.3535 17.4635 30.0106 15.255 28.5409 14.4699C28.0624 14.2142 27.3939 14.0858 26.8548 14.2215C26.5457 14.2993 26.2741 14.5039 26.1121 14.7781C25.9259 15.0935 25.9451 15.4616 25.8788 15.8113C25.7107 16.6982 25.2916 17.5414 24.6426 18.1744C23.5111 19.2779 19.9961 22.4616 19.9961 22.4616V34.1224H32.1427C33.7817 34.1234 34.8559 32.293 34.0475 30.8634C35.0111 30.2462 35.3407 28.9463 34.7763 27.9482C35.7399 27.331 36.0695 26.0311 35.5051 25.033C37.1678 23.9682 36.6119 21.3326 34.6692 21.0041Z" fill="white"/>
</svg>
