<svg width="12" height="9" viewBox="0 0 12 9" fill="none" xmlns="http://www.w3.org/2000/svg">
<path d="M0.138462 4.8C0.0461539 4.71273 0 4.58182 0 4.49455C0 4.40727 0.0461539 4.27636 0.138462 4.18909L0.784615 3.57818C0.969231 3.40364 1.24615 3.40364 1.43077 3.57818L1.47692 3.62182L4.01538 6.19636C4.10769 6.28364 4.24615 6.28364 4.33846 6.19636L10.5231 0.130909H10.5692C10.7538 -0.0436364 11.0308 -0.0436364 11.2154 0.130909L11.8615 0.741818C12.0462 0.916364 12.0462 1.17818 11.8615 1.35273L4.47692 8.59636C4.38462 8.68364 4.29231 8.72727 4.15385 8.72727C4.01538 8.72727 3.92308 8.68364 3.83077 8.59636L0.230769 4.93091L0.138462 4.8Z" fill="#1564C0"/>
</svg>
